<svg xmlns="http://www.w3.org/2000/svg" xmlns:xlink="http://www.w3.org/1999/xlink" width="500" zoomAndPan="magnify" viewBox="0 0 375 374.999991" height="500" preserveAspectRatio="xMidYMid meet" version="1.0"><defs><clipPath id="f24ad8e688"><path d="M 25 26 L 352 26 L 352 329.332031 L 25 329.332031 Z M 25 26 " clip-rule="nonzero"/></clipPath></defs><g clip-path="url(#f24ad8e688)"><path fill="#94f46b" d="M 117.363281 329.300781 L 269.707031 329.300781 C 287.273438 329.300781 304.238281 322.886719 317.40625 311.269531 L 333.136719 297.386719 C 359.871094 273.796875 357.636719 231.484375 328.5625 210.839844 C 305.160156 194.222656 298.351562 162.496094 312.882812 137.761719 L 314.523438 134.964844 C 327.652344 112.605469 324.59375 84.296875 306.988281 65.253906 L 285.753906 42.285156 C 264.761719 19.578125 228.011719 22.539062 210.933594 48.3125 C 197.945312 67.910156 172.589844 75.121094 151.214844 65.292969 L 141.933594 61.027344 C 115.265625 48.769531 83.636719 57.722656 67.371094 82.132812 L 56.945312 97.777344 C 46.632812 113.261719 45.367188 133.0625 53.632812 149.726562 C 63.136719 168.882812 59.945312 191.894531 45.589844 207.75 L 41.402344 212.371094 C 15.273438 241.230469 22.382812 286.800781 56.066406 306.347656 L 76.816406 318.386719 C 89.132812 325.535156 103.121094 329.300781 117.363281 329.300781 Z M 117.363281 329.300781 " fill-opacity="1" fill-rule="nonzero"/></g><path fill="#545454" d="M 342.769531 284.828125 C 343.027344 304.34375 329.726562 320.820312 322.972656 326.589844 L 312.621094 326.589844 C 320.316406 300.554688 333.039062 287.605469 340.167969 283.296875 C 341.355469 282.582031 342.75 283.441406 342.769531 284.828125 Z M 342.769531 284.828125 " fill-opacity="1" fill-rule="nonzero"/><path fill="#ffffff" d="M 343.863281 220.800781 C 354.464844 260.703125 327.734375 307.960938 316.242188 325.554688 L 292.949219 325.554688 C 302.957031 250.265625 319.726562 231.96875 340.933594 219.605469 C 342.070312 218.941406 343.523438 219.527344 343.863281 220.800781 Z M 343.863281 220.800781 " fill-opacity="1" fill-rule="nonzero"/><path fill="#545454" d="M 341.453125 220.5 C 342.011719 220.171875 342.703125 220.464844 342.863281 221.066406 C 348.085938 240.722656 344.128906 262.277344 337.363281 281.195312 C 330.726562 299.761719 321.429688 315.664062 315.679688 324.519531 L 294.132812 324.519531 C 299.113281 287.605469 305.730469 264.675781 313.660156 249.460938 C 321.644531 234.140625 330.976562 226.605469 341.453125 220.5 Z M 344.863281 220.535156 C 344.34375 218.585938 342.128906 217.707031 340.410156 218.707031 C 329.683594 224.964844 320.027344 232.761719 311.824219 248.503906 C 303.648438 264.191406 296.933594 287.730469 291.925781 325.417969 L 291.769531 326.589844 L 316.800781 326.589844 L 317.109375 326.121094 C 322.878906 317.289062 332.484375 301 339.3125 281.894531 C 346.136719 262.804688 350.242188 240.777344 344.863281 220.535156 Z M 344.863281 220.535156 " fill-opacity="1" fill-rule="evenodd"/><path fill="#545454" d="M 306.308594 245.347656 C 315.46875 278.789062 304.984375 313.539062 298.128906 326.589844 L 281.046875 326.589844 C 277.207031 285.835938 292.820312 256.199219 303.085938 244.550781 C 304.101562 243.402344 305.902344 243.871094 306.308594 245.347656 Z M 306.308594 245.347656 " fill-opacity="1" fill-rule="nonzero"/><path fill="#545454" d="M 329.363281 249.191406 L 334.933594 233.527344 L 336.882812 234.222656 L 324.121094 270.105469 L 332.507812 267.585938 L 333.101562 269.570312 L 323.261719 272.527344 L 311.652344 305.164062 L 322.101562 301.273438 L 322.820312 303.21875 L 310.746094 307.710938 L 304.277344 325.902344 L 302.328125 325.207031 L 315.46875 288.261719 L 310.609375 274.625 L 312.558594 273.929688 L 316.566406 285.175781 L 328.1875 252.492188 L 324.566406 240.386719 L 326.550781 239.792969 Z M 329.363281 249.191406 " fill-opacity="1" fill-rule="evenodd"/><path fill="#ffffff" d="M 297.574219 272.050781 L 300.214844 257.515625 L 302.25 257.886719 L 296.890625 287.390625 L 303.855469 283.71875 L 304.820312 285.550781 L 296.421875 289.980469 L 291.824219 315.285156 L 297.582031 310.753906 L 298.859375 312.382812 L 291.265625 318.359375 L 289.828125 326.257812 L 287.792969 325.886719 L 291.472656 305.621094 L 285.402344 297.699219 L 287.042969 296.4375 L 291.972656 302.867188 L 297.109375 274.601562 L 292.191406 269.28125 L 293.710938 267.875 Z M 297.574219 272.050781 " fill-opacity="1" fill-rule="evenodd"/><path fill="#ffffff" d="M 114.832031 81.785156 L 118.8125 82.746094 C 119.523438 82.917969 119.59375 83.898438 118.917969 84.171875 L 115.207031 85.664062 C 114.984375 85.753906 114.816406 85.949219 114.757812 86.183594 L 113.726562 90.433594 C 113.5625 91.117188 112.628906 91.214844 112.324219 90.582031 L 110.40625 86.597656 C 110.3125 86.40625 110.140625 86.261719 109.933594 86.203125 L 105.253906 84.882812 C 104.558594 84.6875 104.515625 83.71875 105.1875 83.460938 L 109.445312 81.832031 C 109.652344 81.753906 109.816406 81.585938 109.886719 81.378906 L 111.5 76.695312 C 111.738281 76.007812 112.71875 76.027344 112.929688 76.726562 L 114.289062 81.269531 C 114.367188 81.527344 114.574219 81.722656 114.832031 81.785156 Z M 114.832031 81.785156 " fill-opacity="1" fill-rule="nonzero"/><path fill="#ffffff" d="M 83.007812 121.007812 L 84.035156 121.84375 C 84.601562 122.300781 84.242188 123.214844 83.515625 123.171875 L 82.234375 123.09375 C 81.992188 123.078125 81.757812 123.183594 81.605469 123.371094 L 80.59375 124.613281 C 80.148438 125.160156 79.265625 124.847656 79.261719 124.144531 L 79.253906 122.496094 C 79.253906 122.28125 79.160156 122.074219 79 121.933594 L 77.609375 120.71875 C 77.066406 120.246094 77.441406 119.351562 78.160156 119.410156 L 79.820312 119.539062 C 80.039062 119.554688 80.257812 119.472656 80.414062 119.316406 L 81.722656 117.980469 C 82.234375 117.460938 83.113281 117.902344 83 118.621094 L 82.738281 120.3125 C 82.695312 120.578125 82.800781 120.839844 83.007812 121.007812 Z M 83.007812 121.007812 " fill-opacity="1" fill-rule="nonzero"/><path fill="#f4ad5e" d="M 331.457031 181.804688 L 328.476562 185.84375 C 328.292969 186.089844 328 186.207031 327.710938 186.148438 L 324.023438 185.417969 C 323.230469 185.261719 322.753906 186.316406 323.363281 186.875 L 326.261719 189.503906 C 326.472656 189.699219 326.570312 189.992188 326.523438 190.285156 L 325.796875 194.625 C 325.660156 195.441406 326.609375 195.945312 327.148438 195.34375 L 330.121094 192.007812 C 330.296875 191.8125 330.550781 191.71875 330.804688 191.753906 L 334.246094 192.25 C 335.023438 192.359375 335.460938 191.339844 334.871094 190.792969 L 332.308594 188.429688 C 332.105469 188.238281 332.007812 187.949219 332.050781 187.664062 L 332.859375 182.453125 C 332.992188 181.597656 331.960938 181.121094 331.457031 181.804688 Z M 331.457031 181.804688 " fill-opacity="1" fill-rule="nonzero"/><path fill="#ffffff" d="M 151.203125 74.808594 C 151.203125 68.828125 156.058594 63.980469 162.046875 63.980469 L 285.441406 63.980469 C 291.429688 63.980469 296.289062 68.828125 296.289062 74.808594 L 296.289062 315.726562 C 296.289062 321.707031 291.429688 326.554688 285.441406 326.554688 L 162.046875 326.554688 C 156.058594 326.554688 151.203125 321.707031 151.203125 315.726562 Z M 151.203125 74.808594 " fill-opacity="1" fill-rule="nonzero"/><path fill="#545454" d="M 150.296875 74.808594 C 150.296875 68.332031 155.558594 63.078125 162.046875 63.078125 L 285.441406 63.078125 C 291.929688 63.078125 297.191406 68.332031 297.191406 74.808594 L 297.191406 315.726562 C 297.191406 322.207031 291.929688 327.457031 285.441406 327.457031 L 162.046875 327.457031 C 155.558594 327.457031 150.296875 322.207031 150.296875 315.726562 Z M 162.046875 64.882812 C 156.558594 64.882812 152.105469 69.328125 152.105469 74.808594 L 152.105469 315.726562 C 152.105469 321.207031 156.558594 325.652344 162.046875 325.652344 L 285.441406 325.652344 C 290.933594 325.652344 295.382812 321.207031 295.382812 315.726562 L 295.382812 74.808594 C 295.382812 69.328125 290.933594 64.882812 285.441406 64.882812 Z M 162.046875 64.882812 " fill-opacity="1" fill-rule="evenodd"/><path fill="#94f46b" d="M 265.988281 160.53125 C 265.988281 183.957031 246.972656 202.949219 223.511719 202.949219 C 200.046875 202.949219 181.027344 183.957031 181.027344 160.53125 C 181.027344 137.105469 200.046875 118.113281 223.511719 118.113281 C 246.972656 118.113281 265.988281 137.105469 265.988281 160.53125 Z M 265.988281 160.53125 " fill-opacity="1" fill-rule="nonzero"/><path fill="#545454" d="M 194.898438 72.785156 L 190.195312 63.980469 L 257.296875 63.980469 L 251.769531 73.179688 C 250.132812 75.898438 247.191406 77.5625 244.019531 77.5625 L 202.871094 77.5625 C 199.535156 77.5625 196.46875 75.722656 194.898438 72.785156 Z M 194.898438 72.785156 " fill-opacity="1" fill-rule="nonzero"/><path fill="#545454" d="M 294.507812 69.414062 L 152.054688 69.414062 C 156.769531 64.703125 161.273438 63.828125 162.9375 63.980469 L 283.625 63.980469 C 289.429688 63.980469 293.296875 67.601562 294.507812 69.414062 Z M 294.507812 69.414062 " fill-opacity="1" fill-rule="nonzero"/><path fill="#545454" d="M 294.398438 321.40625 L 153.007812 321.40625 C 157.910156 326.191406 160.742188 327.082031 162.46875 326.925781 L 284.9375 326.925781 C 290.96875 326.925781 293.140625 323.246094 294.398438 321.40625 Z M 294.398438 321.40625 " fill-opacity="1" fill-rule="nonzero"/><path fill="#f4ad5e" d="M 171.988281 98.257812 C 171.988281 97.261719 172.800781 96.453125 173.796875 96.453125 L 221.933594 96.453125 C 222.929688 96.453125 223.738281 97.261719 223.738281 98.257812 L 223.738281 100.183594 C 223.738281 101.183594 222.929688 101.992188 221.933594 101.992188 L 173.796875 101.992188 C 172.800781 101.992188 171.988281 101.183594 171.988281 100.183594 Z M 171.988281 98.257812 " fill-opacity="1" fill-rule="nonzero"/><path fill="#545454" d="M 171.988281 220.097656 C 171.988281 219.101562 172.800781 218.292969 173.796875 218.292969 L 221.933594 218.292969 C 222.929688 218.292969 223.738281 219.101562 223.738281 220.097656 L 223.738281 222.023438 C 223.738281 223.019531 222.929688 223.828125 221.933594 223.828125 L 173.796875 223.828125 C 172.800781 223.828125 171.988281 223.019531 171.988281 222.023438 Z M 171.988281 220.097656 " fill-opacity="1" fill-rule="nonzero"/><path fill="#545454" d="M 171.988281 267.929688 C 171.988281 266.933594 172.800781 266.125 173.796875 266.125 L 202.71875 266.125 C 203.71875 266.125 204.527344 266.933594 204.527344 267.929688 L 204.527344 269.734375 C 204.527344 270.730469 203.71875 271.539062 202.71875 271.539062 L 173.796875 271.539062 C 172.800781 271.539062 171.988281 270.730469 171.988281 269.734375 Z M 171.988281 267.929688 " fill-opacity="1" fill-rule="nonzero"/><path fill="#94f46b" d="M 171.988281 233.632812 C 171.988281 232.636719 172.800781 231.828125 173.796875 231.828125 L 270.507812 231.828125 C 271.507812 231.828125 272.316406 232.636719 272.316406 233.632812 L 272.316406 251.683594 C 272.316406 252.679688 271.507812 253.488281 270.507812 253.488281 L 173.796875 253.488281 C 172.800781 253.488281 171.988281 252.679688 171.988281 251.683594 Z M 171.988281 233.632812 " fill-opacity="1" fill-rule="nonzero"/><path fill="#94f46b" d="M 171.988281 280.5625 C 171.988281 279.566406 172.800781 278.757812 173.796875 278.757812 L 270.507812 278.757812 C 271.507812 278.757812 272.316406 279.566406 272.316406 280.5625 L 272.316406 298.613281 C 272.316406 299.609375 271.507812 300.417969 270.507812 300.417969 L 173.796875 300.417969 C 172.800781 300.417969 171.988281 299.609375 171.988281 298.613281 Z M 171.988281 280.5625 " fill-opacity="1" fill-rule="nonzero"/><path fill="#545454" d="M 284.292969 76.882812 L 286.101562 76.882812 L 286.101562 84.265625 L 284.292969 84.265625 Z M 284.292969 76.882812 " fill-opacity="1" fill-rule="evenodd"/><path fill="#545454" d="M 279.671875 77.804688 L 281.480469 77.804688 L 281.480469 84.265625 L 279.671875 84.265625 Z M 279.671875 77.804688 " fill-opacity="1" fill-rule="evenodd"/><path fill="#545454" d="M 275.050781 79.652344 L 276.859375 79.652344 L 276.859375 84.265625 L 275.050781 84.265625 Z M 275.050781 79.652344 " fill-opacity="1" fill-rule="evenodd"/><path fill="#545454" d="M 270.433594 81.496094 L 272.238281 81.496094 L 272.238281 84.265625 L 270.433594 84.265625 Z M 270.433594 81.496094 " fill-opacity="1" fill-rule="evenodd"/><path fill="#ffffff" d="M 223.917969 161.042969 C 211.960938 161.042969 202.109375 170.175781 200.785156 181.933594 C 200.617188 183.421875 201.847656 184.636719 203.34375 184.636719 L 244.488281 184.636719 C 245.984375 184.636719 247.214844 183.421875 247.046875 181.933594 C 245.726562 170.175781 235.875 161.042969 223.917969 161.042969 Z M 223.917969 161.042969 " fill-opacity="1" fill-rule="nonzero"/><path fill="#ffffff" d="M 235.382812 147.164062 C 235.382812 153.296875 230.40625 158.265625 224.261719 158.265625 C 218.121094 158.265625 213.144531 153.296875 213.144531 147.164062 C 213.144531 141.03125 218.121094 136.058594 224.261719 136.058594 C 230.40625 136.058594 235.382812 141.03125 235.382812 147.164062 Z M 235.382812 147.164062 " fill-opacity="1" fill-rule="nonzero"/><path fill="#efcb96" d="M 129.585938 183.128906 L 133.261719 194.472656 C 134.730469 199.800781 129.585938 205.414062 117.347656 205.414062 C 107.554688 205.414062 105.597656 199.832031 106.089844 195.308594 L 109.023438 179.738281 C 106.574219 177.3125 104.617188 175.859375 104.617188 164.234375 C 104.617188 149.699219 112.449219 144.371094 121.753906 144.371094 C 131.054688 144.371094 138.890625 152.113281 138.890625 166.171875 C 138.890625 178.285156 132.363281 182.160156 129.585938 183.128906 Z M 129.585938 183.128906 " fill-opacity="1" fill-rule="nonzero"/><path fill="#545454" d="M 152.820312 172.503906 C 160.105469 180.089844 159.128906 198.765625 158.011719 204.457031 C 146.210938 195.71875 138.230469 192.828125 134.097656 192.496094 C 133.429688 192.441406 133.308594 193.988281 132.839844 194.050781 L 129.335938 182.460938 C 134.605469 181.039062 137.960938 176.296875 138.441406 165.390625 C 138.824219 156.667969 134.449219 150.691406 132.210938 148.792969 C 124.542969 148.320312 120.707031 157.804688 118.3125 161.597656 C 116.394531 164.632812 114.957031 164.125 114.476562 163.492188 C 112.082031 157.804688 107.765625 157.328125 106.808594 163.492188 C 106.042969 168.425781 109.683594 170.921875 111.601562 171.554688 L 106.089844 195.726562 C 105.445312 195.765625 104.835938 193.632812 104.835938 192.683594 C 94.589844 193.820312 83.335938 199.230469 79.980469 201.472656 C 78.539062 186.300781 92.429688 174.875 96.261719 165.390625 C 100.097656 155.90625 94.824219 151.164062 98.660156 145.003906 C 101.503906 140.433594 106.808594 139.785156 110.164062 138.835938 C 113.519531 137.890625 115.433594 134.097656 119.269531 132.199219 C 125.980469 129.828125 132.371094 135.675781 134.128906 139.785156 C 135.246094 139.628906 138.441406 140.070312 142.277344 143.105469 C 153.300781 150.691406 143.714844 163.019531 152.820312 172.503906 Z M 152.820312 172.503906 " fill-opacity="1" fill-rule="nonzero"/><path fill="#545454" d="M 119.847656 182.523438 C 125.5625 183.859375 128.894531 183.359375 129.847656 182.941406 L 131.273438 187.53125 C 125.179688 188.199219 121.117188 184.472656 119.847656 182.523438 Z M 119.847656 182.523438 " fill-opacity="1" fill-rule="nonzero"/><path fill="#f4ad5e" d="M 118.566406 201.027344 C 128.183594 201.027344 132.695312 195.113281 133.75 192.152344 C 152.09375 192.152344 167.273438 204.828125 174.230469 213.699219 C 181.1875 222.570312 207.121094 269.464844 200.796875 288.472656 C 195.734375 303.683594 183.507812 306.007812 176.761719 304.949219 L 177.878906 325.109375 C 177.957031 326.550781 176.8125 327.761719 175.375 327.761719 L 82.515625 327.761719 C 72.816406 328.394531 51.648438 328.648438 44.5625 324.59375 C 35.707031 319.523438 27.484375 293.542969 44.5625 242.214844 C 58.226562 201.152344 90.316406 191.730469 104.652344 192.152344 C 105.285156 195.113281 108.953125 201.027344 118.566406 201.027344 Z M 118.566406 201.027344 " fill-opacity="1" fill-rule="nonzero"/><path fill="#545454" d="M 72.507812 327.800781 C 57.257812 309.179688 41.136719 302.539062 34.980469 301.542969 C 34.980469 307.511719 37.957031 318.847656 43.320312 324.21875 C 47.609375 328.515625 64.566406 328.398438 72.507812 327.800781 Z M 72.507812 327.800781 " fill-opacity="1" fill-rule="nonzero"/><path fill="#545454" d="M 190.449219 302.738281 C 200.453125 298.917969 202.164062 285.230469 201.765625 278.867188 C 192.710938 283.164062 180.519531 297.761719 175.554688 304.527344 C 176.351562 305.519531 180.441406 306.554688 190.449219 302.738281 Z M 190.449219 302.738281 " fill-opacity="1" fill-rule="nonzero"/><path fill="#545454" d="M 117.304688 259.324219 C 112.875 261.226562 79.984375 276.644531 64.804688 284.039062 C 66.703125 280.871094 74.292969 275.800781 76.191406 273.898438 C 78.089844 272 85.046875 249.820312 85.046875 252.988281 C 85.046875 256.15625 81.25 270.730469 83.148438 270.730469 C 85.046875 270.730469 111.613281 259.324219 117.304688 259.324219 Z M 117.304688 259.324219 " fill-opacity="1" fill-rule="nonzero"/><path fill="#545454" d="M 130.585938 277.703125 C 103.769531 313.695312 81.882812 326.496094 74.292969 328.398438 L 87.574219 328.398438 C 110.347656 310.652344 125.738281 287.207031 130.585938 277.703125 Z M 130.585938 277.703125 " fill-opacity="1" fill-rule="nonzero"/><path fill="#545454" d="M 163.476562 271.367188 C 164.488281 283.53125 173.175781 298.824219 177.394531 304.949219 L 177.394531 310.652344 C 167.777344 300.007812 164.109375 280.027344 163.476562 271.367188 Z M 163.476562 271.367188 " fill-opacity="1" fill-rule="nonzero"/><path fill="#545454" d="M 175.496094 254.253906 C 179.039062 256.285156 185.40625 261.015625 188.144531 263.128906 L 178.027344 251.085938 C 177.519531 253.113281 176.128906 254.042969 175.496094 254.253906 Z M 175.496094 254.253906 " fill-opacity="1" fill-rule="nonzero"/><path fill="#ffffff" d="M 138.105469 230.875 L 133.230469 278.496094 C 133.171875 279.050781 133.664062 279.503906 134.210938 279.40625 L 157.195312 275.273438 C 157.546875 275.210938 157.820312 274.925781 157.875 274.570312 L 164.589844 229.308594 C 164.667969 228.777344 164.238281 228.3125 163.703125 228.347656 L 138.878906 230.125 C 138.472656 230.15625 138.148438 230.472656 138.105469 230.875 Z M 138.105469 230.875 " fill-opacity="1" fill-rule="nonzero"/><path fill="#545454" d="M 163.644531 227.511719 C 164.710938 227.4375 165.574219 228.371094 165.417969 229.429688 L 158.699219 274.695312 C 158.59375 275.40625 158.046875 275.972656 157.339844 276.097656 L 134.355469 280.230469 C 133.261719 280.425781 132.285156 279.519531 132.398438 278.410156 L 137.273438 230.789062 C 137.355469 229.980469 138.007812 229.347656 138.816406 229.289062 Z M 163.761719 229.183594 L 138.9375 230.960938 L 134.0625 278.582031 L 157.046875 274.449219 Z M 163.761719 229.183594 " fill-opacity="1" fill-rule="evenodd"/><path fill="#efcb96" d="M 171.066406 254.253906 L 163.476562 265.664062 C 153.359375 266.296875 151.460938 260.59375 153.359375 251.722656 C 154.875 244.625 160.527344 244.539062 162.84375 245.382812 L 164.109375 240.316406 C 171.066406 246.019531 171.066406 251.511719 171.066406 254.253906 Z M 171.066406 254.253906 " fill-opacity="1" fill-rule="nonzero"/><path fill="#efcb96" d="M 126.792969 252.988281 C 125.273438 257.042969 122.363281 259.75 121.097656 260.59375 L 129.320312 273.265625 C 131.851562 270.730469 135.015625 270.730469 141.972656 267.5625 C 148.929688 264.394531 150.828125 252.988281 148.929688 246.652344 C 147.410156 241.582031 138.597656 245.382812 135.015625 247.917969 L 135.648438 240.949219 C 131.21875 242.851562 128.6875 247.917969 126.792969 252.988281 Z M 126.792969 252.988281 " fill-opacity="1" fill-rule="nonzero"/><path fill="#ffffff" d="M 347.335938 134.359375 C 347.335938 151.304688 333.578125 165.042969 316.605469 165.042969 C 299.632812 165.042969 285.875 151.304688 285.875 134.359375 C 285.875 117.414062 299.632812 103.675781 316.605469 103.675781 C 333.578125 103.675781 347.335938 117.414062 347.335938 134.359375 Z M 347.335938 134.359375 " fill-opacity="1" fill-rule="nonzero"/><path fill="#545454" d="M 316.605469 104.429688 C 300.050781 104.429688 286.628906 117.828125 286.628906 134.359375 C 286.628906 150.890625 300.050781 164.289062 316.605469 164.289062 C 333.160156 164.289062 346.578125 150.890625 346.578125 134.359375 C 346.578125 117.828125 333.160156 104.429688 316.605469 104.429688 Z M 285.117188 134.359375 C 285.117188 116.996094 299.214844 102.917969 316.605469 102.917969 C 333.996094 102.917969 348.089844 116.996094 348.089844 134.359375 C 348.089844 151.722656 333.996094 165.800781 316.605469 165.800781 C 299.214844 165.800781 285.117188 151.722656 285.117188 134.359375 Z M 285.117188 134.359375 " fill-opacity="1" fill-rule="evenodd"/><path fill="#545454" d="M 316.96875 115.363281 C 311.109375 115.363281 306.359375 120.183594 306.359375 126.132812 L 306.359375 133.503906 C 306.359375 134.378906 307.070312 135.089844 307.945312 135.089844 C 308.820312 135.089844 309.53125 134.378906 309.53125 133.503906 L 309.53125 125.929688 C 309.53125 121.761719 312.863281 118.382812 316.96875 118.382812 C 321.074219 118.382812 324.40625 121.761719 324.40625 125.929688 L 324.40625 133.109375 C 324.40625 133.984375 325.117188 134.695312 325.992188 134.695312 C 326.867188 134.695312 327.578125 133.984375 327.578125 133.109375 L 327.578125 126.132812 C 327.578125 120.183594 322.828125 115.363281 316.96875 115.363281 Z M 316.96875 115.363281 " fill-opacity="1" fill-rule="evenodd"/><path fill="#f4ad5e" d="M 303.433594 133.699219 C 303.433594 132.449219 304.445312 131.4375 305.699219 131.4375 L 328.238281 131.4375 C 329.488281 131.4375 330.503906 132.449219 330.503906 133.699219 L 330.503906 150.359375 C 330.503906 151.609375 329.488281 152.625 328.238281 152.625 L 305.699219 152.625 C 304.445312 152.625 303.433594 151.609375 303.433594 150.359375 Z M 303.433594 133.699219 " fill-opacity="1" fill-rule="nonzero"/><path fill="#ffffff" d="M 318.695312 142.90625 C 319.320312 142.402344 319.722656 141.628906 319.722656 140.761719 C 319.722656 139.242188 318.488281 138.011719 316.96875 138.011719 C 315.445312 138.011719 314.210938 139.242188 314.210938 140.761719 C 314.210938 141.707031 314.691406 142.539062 315.414062 143.035156 L 314.800781 145.613281 C 314.710938 145.996094 315 146.367188 315.394531 146.367188 L 318.742188 146.367188 C 319.140625 146.367188 319.429688 145.996094 319.339844 145.613281 Z M 318.695312 142.90625 " fill-opacity="1" fill-rule="evenodd"/></svg>