<svg xmlns="http://www.w3.org/2000/svg" xmlns:xlink="http://www.w3.org/1999/xlink" width="500" zoomAndPan="magnify" viewBox="0 0 375 374.999991" height="500" preserveAspectRatio="xMidYMid meet" version="1.0"><defs><clipPath id="0a43a4d965"><path d="M 2 33 L 351 33 L 351 337.6875 L 2 337.6875 Z M 2 33 " clip-rule="nonzero"/></clipPath><clipPath id="3315abc632"><path d="M 321 296 L 350 296 L 350 337.6875 L 321 337.6875 Z M 321 296 " clip-rule="nonzero"/></clipPath><clipPath id="d6b9f63e16"><path d="M 301 235 L 355 235 L 355 337.6875 L 301 337.6875 Z M 301 235 " clip-rule="nonzero"/></clipPath><clipPath id="86140d2d67"><path d="M 291 259 L 319 259 L 319 337.6875 L 291 337.6875 Z M 291 259 " clip-rule="nonzero"/></clipPath><clipPath id="dfaf94f951"><path d="M 138 52 L 297 52 L 297 337.6875 L 138 337.6875 Z M 138 52 " clip-rule="nonzero"/></clipPath><clipPath id="abbc4cfd9e"><path d="M 141 331 L 294 331 L 294 337.6875 L 141 337.6875 Z M 141 331 " clip-rule="nonzero"/></clipPath><clipPath id="7f9db6aa3f"><path d="M 21 202 L 178 202 L 178 337.6875 L 21 337.6875 Z M 21 202 " clip-rule="nonzero"/></clipPath></defs><g clip-path="url(#0a43a4d965)"><path fill="#ffbd59" d="M 90.21875 337.699219 L 268.027344 337.699219 C 289.371094 337.699219 308.753906 325.199219 317.605469 305.726562 L 345.695312 243.917969 C 355.617188 222.085938 350.167969 196.316406 332.257812 180.402344 L 303.503906 154.847656 C 291.839844 144.480469 285.164062 129.601562 285.164062 113.976562 L 285.164062 82.460938 C 285.164062 41.09375 237.308594 18.21875 205.25 44.265625 C 194.816406 52.738281 181.375 56.554688 168.0625 54.824219 L 120.964844 48.695312 C 84.148438 43.90625 53.441406 76.632812 60.453125 113.183594 L 65.570312 139.839844 C 70.296875 164.472656 57.519531 189.132812 34.699219 199.417969 C 0.71875 214.738281 -7.929688 259.144531 17.804688 286.15625 L 50.824219 320.804688 C 61.101562 331.59375 75.335938 337.699219 90.21875 337.699219 Z M 90.21875 337.699219 " fill-opacity="1" fill-rule="nonzero"/></g><path fill="#ffffff" d="M 132.855469 102.210938 C 133.824219 100.59375 135.902344 100.058594 137.496094 101.023438 L 146.929688 106.730469 C 148.523438 107.691406 149.023438 109.785156 148.050781 111.402344 C 147.253906 112.730469 147.445312 114.40625 148.410156 115.589844 C 151.109375 118.910156 153.136719 122.6875 154.425781 126.699219 C 154.898438 128.164062 156.191406 129.222656 157.722656 129.242188 C 159.589844 129.265625 161.0625 130.816406 161.015625 132.703125 L 160.738281 143.863281 C 160.691406 145.75 159.140625 147.257812 157.277344 147.230469 C 155.75 147.214844 154.402344 148.238281 153.859375 149.683594 C 153.117188 151.65625 152.1875 153.589844 151.0625 155.460938 C 149.941406 157.332031 148.671875 159.058594 147.277344 160.636719 C 146.257812 161.796875 145.984375 163.46875 146.714844 164.8125 C 147.605469 166.457031 147 168.535156 145.359375 169.457031 L 135.652344 174.917969 C 134.011719 175.839844 131.957031 175.253906 131.066406 173.609375 C 130.335938 172.261719 128.796875 171.605469 127.285156 171.871094 C 123.144531 172.597656 118.871094 172.566406 114.683594 171.71875 C 113.191406 171.414062 111.621094 172.027344 110.824219 173.355469 C 109.851562 174.972656 107.777344 175.507812 106.183594 174.542969 L 96.75 168.835938 C 95.15625 167.875 94.65625 165.78125 95.628906 164.164062 C 96.425781 162.835938 96.234375 161.160156 95.269531 159.976562 C 92.570312 156.65625 90.542969 152.878906 89.253906 148.867188 C 88.78125 147.402344 87.488281 146.34375 85.957031 146.324219 C 84.089844 146.300781 82.617188 144.753906 82.664062 142.867188 L 82.941406 131.703125 C 82.988281 129.816406 84.539062 128.308594 86.402344 128.335938 C 87.929688 128.351562 89.277344 127.328125 89.820312 125.882812 C 90.5625 123.910156 91.492188 121.976562 92.617188 120.105469 C 93.742188 118.238281 95.011719 116.507812 96.402344 114.929688 C 97.421875 113.769531 97.695312 112.097656 96.964844 110.753906 C 96.074219 109.109375 96.679688 107.03125 98.320312 106.109375 L 108.027344 100.648438 C 109.667969 99.726562 111.722656 100.3125 112.613281 101.957031 C 113.347656 103.304688 114.886719 103.960938 116.394531 103.695312 C 120.535156 102.96875 124.808594 103 128.992188 103.847656 C 130.488281 104.152344 132.054688 103.539062 132.855469 102.210938 Z M 138.367188 147.78125 C 132.785156 157.070312 120.859375 160.125 111.734375 154.605469 C 102.605469 149.082031 99.734375 137.078125 105.3125 127.789062 C 110.894531 118.496094 122.820312 115.441406 131.945312 120.964844 C 141.074219 126.484375 143.949219 138.488281 138.367188 147.78125 Z M 138.367188 147.78125 " fill-opacity="1" fill-rule="evenodd"/><path fill="#ffffff" d="M 80.726562 60.960938 C 81.300781 60.007812 82.523438 59.695312 83.457031 60.261719 L 89.015625 63.613281 C 89.949219 64.179688 90.246094 65.40625 89.671875 66.355469 C 89.203125 67.136719 89.316406 68.121094 89.886719 68.816406 C 91.476562 70.765625 92.667969 72.980469 93.429688 75.339844 C 93.703125 76.199219 94.46875 76.820312 95.367188 76.832031 C 96.46875 76.84375 97.335938 77.753906 97.308594 78.863281 L 97.144531 85.417969 C 97.117188 86.523438 96.203125 87.410156 95.105469 87.394531 C 94.207031 87.382812 93.414062 87.984375 93.09375 88.832031 C 92.65625 89.992188 92.109375 91.125 91.449219 92.226562 C 90.785156 93.324219 90.039062 94.335938 89.21875 95.265625 C 88.617188 95.945312 88.457031 96.925781 88.886719 97.714844 C 89.410156 98.683594 89.054688 99.902344 88.089844 100.445312 L 82.375 103.648438 C 81.410156 104.191406 80.199219 103.847656 79.671875 102.878906 C 79.242188 102.089844 78.335938 101.707031 77.449219 101.859375 C 75.011719 102.289062 72.492188 102.269531 70.027344 101.769531 C 69.148438 101.59375 68.226562 101.953125 67.757812 102.734375 C 67.183594 103.683594 65.960938 103.996094 65.023438 103.429688 L 59.46875 100.078125 C 58.53125 99.515625 58.238281 98.285156 58.808594 97.335938 C 59.277344 96.558594 59.164062 95.570312 58.597656 94.875 C 57.007812 92.929688 55.816406 90.710938 55.054688 88.355469 C 54.777344 87.496094 54.015625 86.871094 53.113281 86.859375 C 52.015625 86.847656 51.148438 85.9375 51.175781 84.832031 L 51.339844 78.277344 C 51.367188 77.167969 52.277344 76.285156 53.378906 76.296875 C 54.277344 76.308594 55.070312 75.707031 55.390625 74.859375 C 55.824219 73.699219 56.375 72.566406 57.035156 71.46875 C 57.695312 70.371094 58.445312 69.355469 59.265625 68.429688 C 59.863281 67.746094 60.027344 66.765625 59.597656 65.976562 C 59.070312 65.011719 59.429688 63.789062 60.394531 63.246094 L 66.109375 60.042969 C 67.074219 59.5 68.285156 59.84375 68.808594 60.8125 C 69.242188 61.601562 70.148438 61.988281 71.035156 61.832031 C 73.472656 61.402344 75.988281 61.421875 78.453125 61.921875 C 79.332031 62.097656 80.257812 61.738281 80.726562 60.960938 Z M 83.972656 87.714844 C 80.6875 93.171875 73.664062 94.964844 68.292969 91.722656 C 62.917969 88.480469 61.226562 81.429688 64.511719 75.976562 C 67.796875 70.523438 74.820312 68.726562 80.191406 71.96875 C 85.566406 75.210938 87.257812 82.261719 83.972656 87.714844 Z M 83.972656 87.714844 " fill-opacity="1" fill-rule="evenodd"/><g clip-path="url(#3315abc632)"><path fill="#545454" d="M 349.824219 298.035156 C 350.066406 316.359375 337.585938 331.832031 331.246094 337.253906 L 321.53125 337.253906 C 328.753906 312.800781 340.691406 300.644531 347.382812 296.597656 C 348.496094 295.921875 349.808594 296.730469 349.824219 298.035156 Z M 349.824219 298.035156 " fill-opacity="1" fill-rule="nonzero"/></g><path fill="#ffffff" d="M 350.851562 237.90625 C 360.800781 275.378906 335.71875 319.757812 324.933594 336.28125 L 303.078125 336.28125 C 312.464844 265.578125 328.203125 248.394531 348.101562 236.785156 C 349.171875 236.160156 350.535156 236.710938 350.851562 237.90625 Z M 350.851562 237.90625 " fill-opacity="1" fill-rule="nonzero"/><g clip-path="url(#d6b9f63e16)"><path fill="#545454" d="M 348.589844 237.625 C 349.117188 237.320312 349.761719 237.59375 349.914062 238.15625 C 354.816406 256.617188 351.101562 276.859375 344.753906 294.621094 C 338.523438 312.058594 329.800781 326.988281 324.40625 335.308594 L 304.1875 335.308594 C 308.859375 300.644531 315.070312 279.109375 322.507812 264.824219 C 330 250.4375 338.761719 243.359375 348.589844 237.625 Z M 351.789062 237.65625 C 351.304688 235.828125 349.226562 235.003906 347.613281 235.941406 C 337.546875 241.816406 328.484375 249.140625 320.785156 263.921875 C 313.113281 278.65625 306.8125 300.757812 302.113281 336.152344 L 301.96875 337.253906 L 325.457031 337.253906 L 325.746094 336.8125 C 331.164062 328.515625 340.171875 313.21875 346.582031 295.277344 C 352.988281 277.351562 356.839844 256.667969 351.789062 237.65625 Z M 351.789062 237.65625 " fill-opacity="1" fill-rule="evenodd"/></g><g clip-path="url(#86140d2d67)"><path fill="#545454" d="M 315.609375 260.960938 C 324.207031 292.363281 314.367188 324.996094 307.933594 337.253906 L 291.90625 337.253906 C 288.300781 298.980469 302.953125 271.152344 312.589844 260.210938 C 313.539062 259.132812 315.230469 259.574219 315.609375 260.960938 Z M 315.609375 260.960938 " fill-opacity="1" fill-rule="nonzero"/></g><path fill="#545454" d="M 337.246094 264.570312 L 342.472656 249.859375 L 344.304688 250.511719 L 332.328125 284.210938 L 340.195312 281.84375 L 340.753906 283.707031 L 331.519531 286.484375 L 320.628906 317.128906 L 330.429688 313.480469 L 331.109375 315.304688 L 319.777344 319.523438 L 313.707031 336.605469 L 311.875 335.953125 L 324.207031 301.257812 L 319.648438 288.453125 L 321.476562 287.796875 L 325.238281 298.359375 L 336.144531 267.667969 L 332.746094 256.300781 L 334.605469 255.742188 Z M 337.246094 264.570312 " fill-opacity="1" fill-rule="evenodd"/><path fill="#ffffff" d="M 307.414062 286.035156 L 309.894531 272.386719 L 311.804688 272.734375 L 306.773438 300.441406 L 313.308594 296.992188 L 314.214844 298.714844 L 306.332031 302.871094 L 302.019531 326.632812 L 307.421875 322.382812 L 308.621094 323.914062 L 301.496094 329.519531 L 300.148438 336.941406 L 298.234375 336.59375 L 301.691406 317.558594 L 295.992188 310.121094 L 297.535156 308.933594 L 302.160156 314.976562 L 306.980469 288.429688 L 302.363281 283.4375 L 303.789062 282.113281 Z M 307.414062 286.035156 " fill-opacity="1" fill-rule="evenodd"/><path fill="#ffffff" d="M 336.488281 196.9375 L 332.359375 200.269531 C 331.625 200.863281 330.5625 200.164062 330.816406 199.25 L 332.203125 194.253906 C 332.285156 193.953125 332.21875 193.628906 332.023438 193.382812 L 328.464844 188.964844 C 327.890625 188.253906 328.527344 187.214844 329.417969 187.402344 L 335.027344 188.578125 C 335.300781 188.632812 335.585938 188.570312 335.808594 188.402344 L 340.851562 184.636719 C 341.601562 184.074219 342.628906 184.792969 342.363281 185.691406 L 340.683594 191.355469 C 340.601562 191.632812 340.644531 191.929688 340.804688 192.171875 L 344.347656 197.53125 C 344.871094 198.320312 344.074219 199.3125 343.195312 198.976562 L 337.445312 196.785156 C 337.121094 196.660156 336.757812 196.71875 336.488281 196.9375 Z M 336.488281 196.9375 " fill-opacity="1" fill-rule="nonzero"/><path fill="#94f46b" d="M 321.226562 133.199219 L 319.5625 133.597656 C 318.644531 133.816406 317.984375 132.726562 318.601562 132.011719 L 319.691406 130.757812 C 319.898438 130.519531 319.976562 130.199219 319.902344 129.894531 L 319.421875 127.871094 C 319.210938 126.980469 320.226562 126.316406 320.953125 126.871094 L 322.65625 128.167969 C 322.878906 128.335938 323.160156 128.402344 323.433594 128.347656 L 325.777344 127.878906 C 326.695312 127.695312 327.316406 128.785156 326.691406 129.480469 L 325.253906 131.082031 C 325.058594 131.296875 324.972656 131.585938 325.011719 131.871094 L 325.351562 134.269531 C 325.484375 135.207031 324.339844 135.765625 323.6875 135.078125 L 322.15625 133.472656 C 321.917969 133.222656 321.5625 133.121094 321.226562 133.199219 Z M 321.226562 133.199219 " fill-opacity="1" fill-rule="nonzero"/><path fill="#ffffff" d="M 139.808594 65.324219 C 139.808594 58.878906 145.027344 53.652344 151.46875 53.652344 L 284.078125 53.652344 C 290.519531 53.652344 295.738281 58.878906 295.738281 65.324219 L 295.738281 325.011719 C 295.738281 331.460938 290.519531 336.6875 284.078125 336.6875 L 151.46875 336.6875 C 145.027344 336.6875 139.808594 331.460938 139.808594 325.011719 Z M 139.808594 65.324219 " fill-opacity="1" fill-rule="nonzero"/><g clip-path="url(#dfaf94f951)"><path fill="#545454" d="M 138.839844 65.324219 C 138.839844 58.339844 144.492188 52.679688 151.464844 52.679688 L 284.078125 52.679688 C 291.054688 52.679688 296.707031 58.339844 296.707031 65.324219 L 296.707031 325.011719 C 296.707031 331.996094 291.054688 337.660156 284.078125 337.660156 L 151.464844 337.660156 C 144.492188 337.660156 138.839844 331.996094 138.839844 325.011719 Z M 151.464844 54.625 C 145.566406 54.625 140.78125 59.414062 140.78125 65.324219 L 140.78125 325.011719 C 140.78125 330.921875 145.566406 335.714844 151.464844 335.714844 L 284.078125 335.714844 C 289.980469 335.714844 294.765625 330.921875 294.765625 325.011719 L 294.765625 65.324219 C 294.765625 59.414062 289.980469 54.625 284.078125 54.625 Z M 151.464844 54.625 " fill-opacity="1" fill-rule="evenodd"/></g><path fill="#ffbd59" d="M 250.546875 145.078125 C 250.546875 163.347656 235.761719 178.15625 217.519531 178.15625 C 199.28125 178.15625 184.492188 163.347656 184.492188 145.078125 C 184.492188 126.8125 199.28125 112.003906 217.519531 112.003906 C 235.761719 112.003906 250.546875 126.8125 250.546875 145.078125 Z M 250.546875 145.078125 " fill-opacity="1" fill-rule="nonzero"/><path fill="#545454" d="M 186.769531 63.140625 L 181.71875 53.652344 L 253.832031 53.652344 L 247.890625 63.566406 C 246.136719 66.496094 242.972656 68.289062 239.5625 68.289062 L 195.339844 68.289062 C 191.753906 68.289062 188.457031 66.3125 186.769531 63.140625 Z M 186.769531 63.140625 " fill-opacity="1" fill-rule="nonzero"/><path fill="#545454" d="M 293.824219 59.507812 L 140.726562 59.507812 C 145.796875 54.433594 150.636719 53.488281 152.421875 53.652344 L 282.128906 53.652344 C 288.367188 53.652344 292.523438 57.554688 293.824219 59.507812 Z M 293.824219 59.507812 " fill-opacity="1" fill-rule="nonzero"/><g clip-path="url(#abbc4cfd9e)"><path fill="#545454" d="M 293.707031 331.136719 L 141.753906 331.136719 C 147.019531 336.292969 150.0625 337.253906 151.921875 337.089844 L 283.542969 337.089844 C 290.023438 337.089844 292.359375 333.121094 293.707031 331.136719 Z M 293.707031 331.136719 " fill-opacity="1" fill-rule="nonzero"/></g><path fill="#94f46b" d="M 189.835938 92.546875 C 189.835938 91.472656 190.707031 90.601562 191.78125 90.601562 L 243.511719 90.601562 C 244.585938 90.601562 245.453125 91.472656 245.453125 92.546875 L 245.453125 94.625 C 245.453125 95.699219 244.585938 96.570312 243.511719 96.570312 L 191.78125 96.570312 C 190.707031 96.570312 189.835938 95.699219 189.835938 94.625 Z M 189.835938 92.546875 " fill-opacity="1" fill-rule="nonzero"/><path fill="#94f46b" d="M 162.152344 215.121094 C 162.152344 214.046875 163.023438 213.175781 164.09375 213.175781 L 201.980469 213.175781 C 203.050781 213.175781 203.921875 214.046875 203.921875 215.121094 L 203.921875 217.066406 C 203.921875 218.144531 203.050781 219.015625 201.980469 219.015625 L 164.09375 219.015625 C 163.023438 219.015625 162.152344 218.144531 162.152344 217.066406 Z M 162.152344 215.121094 " fill-opacity="1" fill-rule="nonzero"/><path fill="#94f46b" d="M 162.152344 244.308594 C 162.152344 243.234375 163.023438 242.363281 164.09375 242.363281 L 201.980469 242.363281 C 203.050781 242.363281 203.921875 243.234375 203.921875 244.308594 L 203.921875 246.253906 C 203.921875 247.328125 203.050781 248.199219 201.980469 248.199219 L 164.09375 248.199219 C 163.023438 248.199219 162.152344 247.328125 162.152344 246.253906 Z M 162.152344 244.308594 " fill-opacity="1" fill-rule="nonzero"/><path fill="#94f46b" d="M 162.152344 273.492188 C 162.152344 272.417969 163.023438 271.546875 164.09375 271.546875 L 201.980469 271.546875 C 203.050781 271.546875 203.921875 272.417969 203.921875 273.492188 L 203.921875 275.4375 C 203.921875 276.511719 203.050781 277.382812 201.980469 277.382812 L 164.09375 277.382812 C 163.023438 277.382812 162.152344 276.511719 162.152344 275.4375 Z M 162.152344 273.492188 " fill-opacity="1" fill-rule="nonzero"/><path fill="#ffbd59" d="M 162.152344 302.675781 C 162.152344 301.601562 163.023438 300.730469 164.09375 300.730469 L 201.980469 300.730469 C 203.050781 300.730469 203.921875 301.601562 203.921875 302.675781 L 203.921875 304.621094 C 203.921875 305.695312 203.050781 306.566406 201.980469 306.566406 L 164.09375 306.566406 C 163.023438 306.566406 162.152344 305.695312 162.152344 304.621094 Z M 162.152344 302.675781 " fill-opacity="1" fill-rule="nonzero"/><path fill="#545454" d="M 239.863281 216.09375 C 239.863281 212.335938 242.90625 209.285156 246.660156 209.285156 L 269.976562 209.285156 C 273.730469 209.285156 276.773438 212.335938 276.773438 216.09375 C 276.773438 219.855469 273.730469 222.90625 269.976562 222.90625 L 246.660156 222.90625 C 242.90625 222.90625 239.863281 219.855469 239.863281 216.09375 Z M 239.863281 216.09375 " fill-opacity="1" fill-rule="nonzero"/><path fill="#545454" d="M 239.863281 245.28125 C 239.863281 241.519531 242.90625 238.46875 246.660156 238.46875 L 269.976562 238.46875 C 273.730469 238.46875 276.773438 241.519531 276.773438 245.28125 C 276.773438 249.042969 273.730469 252.089844 269.976562 252.089844 L 246.660156 252.089844 C 242.90625 252.089844 239.863281 249.042969 239.863281 245.28125 Z M 239.863281 245.28125 " fill-opacity="1" fill-rule="nonzero"/><path fill="#545454" d="M 239.863281 274.464844 C 239.863281 270.703125 242.90625 267.65625 246.660156 267.65625 L 269.976562 267.65625 C 273.730469 267.65625 276.773438 270.703125 276.773438 274.464844 C 276.773438 278.226562 273.730469 281.273438 269.976562 281.273438 L 246.660156 281.273438 C 242.90625 281.273438 239.863281 278.226562 239.863281 274.464844 Z M 239.863281 274.464844 " fill-opacity="1" fill-rule="nonzero"/><path fill="#ffbd59" d="M 238.890625 303.648438 C 238.890625 299.351562 242.371094 295.867188 246.660156 295.867188 L 269.976562 295.867188 C 274.265625 295.867188 277.746094 299.351562 277.746094 303.648438 C 277.746094 307.949219 274.265625 311.433594 269.976562 311.433594 L 246.660156 311.433594 C 242.371094 311.433594 238.890625 307.949219 238.890625 303.648438 Z M 246.660156 297.8125 C 243.441406 297.8125 240.832031 300.425781 240.832031 303.648438 C 240.832031 306.871094 243.441406 309.488281 246.660156 309.488281 L 269.976562 309.488281 C 273.195312 309.488281 275.804688 306.871094 275.804688 303.648438 C 275.804688 300.425781 273.195312 297.8125 269.976562 297.8125 Z M 246.660156 297.8125 " fill-opacity="1" fill-rule="evenodd"/><path fill="#545454" d="M 282.847656 67.558594 L 284.789062 67.558594 L 284.789062 75.515625 L 282.847656 75.515625 Z M 282.847656 67.558594 " fill-opacity="1" fill-rule="evenodd"/><path fill="#545454" d="M 277.882812 68.554688 L 279.824219 68.554688 L 279.824219 75.515625 L 277.882812 75.515625 Z M 277.882812 68.554688 " fill-opacity="1" fill-rule="evenodd"/><path fill="#545454" d="M 272.914062 70.542969 L 274.859375 70.542969 L 274.859375 75.515625 L 272.914062 75.515625 Z M 272.914062 70.542969 " fill-opacity="1" fill-rule="evenodd"/><path fill="#545454" d="M 267.949219 72.53125 L 269.890625 72.53125 L 269.890625 75.515625 L 267.949219 75.515625 Z M 267.949219 72.53125 " fill-opacity="1" fill-rule="evenodd"/><path fill="#ffffff" d="M 217.835938 145.476562 C 208.8125 145.476562 201.332031 152.191406 199.960938 160.96875 C 199.710938 162.5625 201.039062 163.878906 202.648438 163.878906 L 233.023438 163.878906 C 234.632812 163.878906 235.964844 162.5625 235.714844 160.96875 C 234.34375 152.191406 226.859375 145.476562 217.835938 145.476562 Z M 217.835938 145.476562 " fill-opacity="1" fill-rule="nonzero"/><path fill="#ffffff" d="M 226.753906 134.65625 C 226.753906 139.4375 222.882812 143.3125 218.105469 143.3125 C 213.332031 143.3125 209.460938 139.4375 209.460938 134.65625 C 209.460938 129.875 213.332031 125.996094 218.105469 125.996094 C 222.882812 125.996094 226.753906 129.875 226.753906 134.65625 Z M 226.753906 134.65625 " fill-opacity="1" fill-rule="nonzero"/><path fill="#94f46b" d="M 254.433594 165.507812 C 254.433594 173.566406 247.910156 180.101562 239.863281 180.101562 C 231.816406 180.101562 225.292969 173.566406 225.292969 165.507812 C 225.292969 157.449219 231.816406 150.917969 239.863281 150.917969 C 247.910156 150.917969 254.433594 157.449219 254.433594 165.507812 Z M 254.433594 165.507812 " fill-opacity="1" fill-rule="nonzero"/><path fill="#ffffff" d="M 246.789062 158.578125 C 247.03125 158.175781 246.902344 157.65625 246.5 157.414062 L 244.125 155.976562 C 243.722656 155.734375 243.203125 155.863281 242.960938 156.265625 C 242.761719 156.59375 242.371094 156.746094 241.996094 156.667969 C 240.945312 156.449219 239.871094 156.433594 238.832031 156.609375 C 238.457031 156.671875 238.066406 156.507812 237.882812 156.171875 C 237.65625 155.761719 237.140625 155.609375 236.730469 155.835938 L 234.300781 157.179688 C 233.890625 157.40625 233.742188 157.925781 233.96875 158.335938 C 234.15625 158.671875 234.089844 159.085938 233.832031 159.371094 C 233.488281 159.761719 233.171875 160.191406 232.890625 160.65625 C 232.613281 161.117188 232.382812 161.597656 232.199219 162.085938 C 232.066406 162.445312 231.730469 162.699219 231.34375 162.691406 C 230.878906 162.683594 230.492188 163.054688 230.480469 163.523438 L 230.429688 166.300781 C 230.421875 166.769531 230.792969 167.160156 231.261719 167.167969 C 231.644531 167.175781 231.972656 167.441406 232.09375 167.804688 C 232.421875 168.804688 232.9375 169.75 233.621094 170.578125 C 233.867188 170.875 233.914062 171.292969 233.71875 171.621094 C 233.476562 172.023438 233.605469 172.542969 234.007812 172.785156 L 236.382812 174.222656 C 236.785156 174.464844 237.304688 174.335938 237.546875 173.933594 C 237.742188 173.605469 238.136719 173.453125 238.511719 173.53125 C 239.5625 173.75 240.636719 173.765625 241.675781 173.589844 C 242.050781 173.527344 242.441406 173.691406 242.625 174.027344 C 242.851562 174.4375 243.367188 174.585938 243.777344 174.359375 L 246.207031 173.019531 C 246.617188 172.789062 246.765625 172.273438 246.539062 171.863281 C 246.351562 171.527344 246.417969 171.113281 246.671875 170.824219 C 247.019531 170.433594 247.335938 170.007812 247.617188 169.542969 C 247.894531 169.078125 248.125 168.601562 248.308594 168.109375 C 248.441406 167.75 248.777344 167.5 249.160156 167.507812 C 249.628906 167.515625 250.015625 167.140625 250.023438 166.671875 L 250.078125 163.898438 C 250.085938 163.425781 249.714844 163.039062 249.246094 163.03125 C 248.859375 163.023438 248.535156 162.757812 248.414062 162.394531 C 248.082031 161.390625 247.570312 160.449219 246.886719 159.621094 C 246.644531 159.324219 246.59375 158.90625 246.789062 158.578125 Z M 236.089844 162.585938 C 234.703125 164.886719 235.445312 167.878906 237.742188 169.269531 C 240.042969 170.65625 243.03125 169.914062 244.417969 167.613281 C 245.804688 165.308594 245.0625 162.316406 242.761719 160.929688 C 240.464844 159.542969 237.476562 160.28125 236.089844 162.585938 Z M 236.089844 162.585938 " fill-opacity="1" fill-rule="evenodd"/><path fill="#545454" d="M 162.921875 86.996094 L 164.296875 88.371094 L 159.640625 93.035156 L 164.296875 97.695312 L 162.921875 99.070312 L 156.894531 93.035156 Z M 162.921875 86.996094 " fill-opacity="1" fill-rule="evenodd"/><path fill="#545454" d="M 278.234375 90.113281 L 268.035156 90.113281 L 268.035156 88.167969 L 278.234375 88.167969 Z M 278.234375 94.980469 L 268.035156 94.980469 L 268.035156 93.035156 L 278.234375 93.035156 Z M 278.234375 99.84375 L 268.035156 99.84375 L 268.035156 97.898438 L 278.234375 97.898438 Z M 278.234375 99.84375 " fill-opacity="1" fill-rule="evenodd"/><path fill="#ffbd59" d="M 159.238281 192.261719 L 276.773438 192.261719 L 276.773438 194.207031 L 159.238281 194.207031 Z M 159.238281 192.261719 " fill-opacity="1" fill-rule="evenodd"/><path fill="#ffffff" d="M 273.863281 216.09375 C 273.863281 218.78125 271.6875 220.960938 269.003906 220.960938 C 266.324219 220.960938 264.148438 218.78125 264.148438 216.09375 C 264.148438 213.410156 266.324219 211.230469 269.003906 211.230469 C 271.6875 211.230469 273.863281 213.410156 273.863281 216.09375 Z M 273.863281 216.09375 " fill-opacity="1" fill-rule="nonzero"/><path fill="#ffffff" d="M 273.863281 245.28125 C 273.863281 247.96875 271.6875 250.144531 269.003906 250.144531 C 266.324219 250.144531 264.148438 247.96875 264.148438 245.28125 C 264.148438 242.59375 266.324219 240.417969 269.003906 240.417969 C 271.6875 240.417969 273.863281 242.59375 273.863281 245.28125 Z M 273.863281 245.28125 " fill-opacity="1" fill-rule="nonzero"/><path fill="#ffffff" d="M 273.863281 274.464844 C 273.863281 277.152344 271.6875 279.328125 269.003906 279.328125 C 266.324219 279.328125 264.148438 277.152344 264.148438 274.464844 C 264.148438 271.777344 266.324219 269.601562 269.003906 269.601562 C 271.6875 269.601562 273.863281 271.777344 273.863281 274.464844 Z M 273.863281 274.464844 " fill-opacity="1" fill-rule="nonzero"/><path fill="#545454" d="M 252.492188 303.648438 C 252.492188 306.335938 250.316406 308.511719 247.632812 308.511719 C 244.953125 308.511719 242.777344 306.335938 242.777344 303.648438 C 242.777344 300.960938 244.953125 298.785156 247.632812 298.785156 C 250.316406 298.785156 252.492188 300.960938 252.492188 303.648438 Z M 252.492188 303.648438 " fill-opacity="1" fill-rule="nonzero"/><path fill="#efcb96" d="M 90.46875 198.695312 L 89.003906 206.46875 C 89.332031 209.0625 91.835938 214.246094 99.253906 214.246094 C 106.667969 214.246094 109.5 209.710938 109.988281 207.441406 L 108.523438 198.695312 C 109.867188 198.25 111.941406 195.777344 112.378906 190.429688 C 113.207031 190.429688 114.378906 188.875 114.378906 186.542969 C 114.378906 184.210938 113.179688 183.300781 112.332031 183.140625 C 111.90625 174.8125 109.675781 168.074219 99.253906 168.074219 C 89.457031 168.074219 87.210938 176.535156 86.710938 183.140625 C 86.011719 183.300781 84.613281 184.210938 84.613281 186.542969 C 84.613281 188.875 85.976562 190.429688 86.660156 190.429688 C 86.660156 194.804688 88.769531 197.847656 90.46875 198.695312 Z M 90.46875 198.695312 " fill-opacity="1" fill-rule="nonzero"/><path fill="#545454" d="M 91.445312 198.695312 L 89.007812 205.496094 C 88.617188 205.109375 88.191406 203.390625 88.03125 202.582031 C 77.101562 203.359375 65.257812 208.089844 60.703125 210.359375 C 62.332031 208.414062 65.488281 203.261719 65.097656 198.207031 C 64.609375 191.890625 64.121094 187.515625 72.417969 181.195312 C 80.710938 174.878906 76.808594 169.046875 81.199219 163.699219 C 84.714844 159.421875 89.820312 160.296875 91.9375 161.269531 C 92.421875 158.027344 95.546875 151.839844 104.132812 153.007812 C 114.871094 154.464844 110.964844 161.269531 117.308594 166.617188 C 123.652344 171.960938 130.972656 168.558594 129.507812 181.683594 C 128.042969 194.804688 136.828125 195.777344 139.265625 201.125 C 141.21875 205.402344 141.058594 209.710938 140.730469 211.332031 C 129.800781 205.496094 116.332031 203.066406 110.964844 202.582031 C 110.574219 204.527344 109.828125 205.660156 109.5 205.984375 L 107.550781 198.695312 C 109.988281 197.722656 111.617188 192.535156 111.453125 190.429688 C 112.105469 190.429688 113.40625 188.875 113.40625 186.542969 C 113.40625 184.210938 112.105469 183.300781 111.453125 183.140625 L 109.988281 188.972656 L 108.527344 183.625 C 100.328125 184.402344 96 179.414062 94.375 176.820312 C 93.59375 180.320312 91.449219 182.167969 89.984375 182.65625 L 89.496094 188.972656 L 88.03125 183.140625 C 87.21875 182.976562 85.59375 183.335938 85.59375 186.058594 C 85.59375 188.777344 87.21875 190.105469 88.03125 189.945312 C 87.640625 195 90.144531 197.558594 91.445312 198.695312 Z M 91.445312 198.695312 " fill-opacity="1" fill-rule="nonzero"/><g clip-path="url(#7f9db6aa3f)"><path fill="#94f46b" d="M 88.03125 202.582031 C 88.679688 205.496094 91.058594 211.332031 99.253906 211.332031 L 99.742188 211.332031 C 107.9375 211.332031 110.3125 205.496094 110.964844 202.582031 C 123 203.878906 150.585938 211.039062 160.734375 229.3125 C 173.421875 252.15625 182.550781 292.40625 174.886719 308.535156 C 170.496094 317.769531 163.175781 323.117188 157.320312 323.117188 C 158.621094 328.464844 160.636719 337.699219 158.296875 337.699219 L 40.699219 337.699219 C 38.355469 337.699219 40.375 328.464844 41.675781 323.117188 C 35.820312 323.117188 28.5 317.769531 24.109375 308.535156 C 16.441406 292.40625 25.570312 252.15625 38.257812 229.3125 C 48.410156 211.039062 75.996094 203.878906 88.03125 202.582031 Z M 88.03125 202.582031 " fill-opacity="1" fill-rule="nonzero"/></g><path fill="#545454" d="M 82.175781 275.972656 C 69.976562 313.882812 48.992188 324.089844 41.671875 323.117188 L 40.695312 327.492188 C 64.511719 325.160156 79.734375 291.6875 82.175781 275.972656 Z M 82.175781 275.972656 " fill-opacity="1" fill-rule="nonzero"/><path fill="#545454" d="M 116.820312 275.972656 C 129.019531 313.882812 150.003906 324.089844 157.320312 323.117188 L 158.296875 327.492188 C 134.484375 325.160156 119.261719 291.6875 116.820312 275.972656 Z M 116.820312 275.972656 " fill-opacity="1" fill-rule="nonzero"/><path fill="#545454" d="M 47.042969 269.167969 L 52.898438 245.839844 L 51.433594 265.765625 C 54.75 263.820312 66.804688 259.933594 69.976562 258.960938 C 65.292969 260.515625 45.902344 272.730469 39.234375 277.917969 Z M 47.042969 269.167969 " fill-opacity="1" fill-rule="nonzero"/><path fill="#545454" d="M 151.953125 269.167969 L 146.097656 245.839844 L 147.5625 265.765625 C 144.242188 263.820312 132.191406 259.933594 129.019531 258.960938 C 133.703125 260.515625 153.089844 272.730469 159.761719 277.917969 Z M 151.953125 269.167969 " fill-opacity="1" fill-rule="nonzero"/><path fill="#545454" d="M 50.945312 321.171875 C 41.96875 307.953125 28.011719 303.351562 22.15625 302.703125 C 23.132812 308.050781 27.328125 316.894531 34.355469 321.171875 C 41.382812 325.449219 48.34375 322.953125 50.945312 321.171875 Z M 50.945312 321.171875 " fill-opacity="1" fill-rule="nonzero"/><path fill="#545454" d="M 148.050781 321.171875 C 157.027344 307.953125 170.984375 303.351562 176.839844 302.703125 C 175.863281 308.050781 171.667969 316.894531 164.640625 321.171875 C 157.613281 325.449219 150.652344 322.953125 148.050781 321.171875 Z M 148.050781 321.171875 " fill-opacity="1" fill-rule="nonzero"/><path fill="#ffffff" d="M 87.363281 271.5 L 84.328125 235.125 C 84.21875 233.828125 85.246094 232.714844 86.554688 232.714844 L 112.828125 232.714844 C 114.167969 232.714844 115.210938 233.886719 115.042969 235.214844 L 110.492188 271.589844 C 110.351562 272.707031 109.398438 273.542969 108.273438 273.542969 L 89.589844 273.542969 C 88.429688 273.542969 87.460938 272.65625 87.363281 271.5 Z M 87.363281 271.5 " fill-opacity="1" fill-rule="nonzero"/><path fill="#545454" d="M 86.554688 233.457031 C 85.683594 233.457031 85 234.199219 85.070312 235.0625 L 88.105469 271.4375 C 88.171875 272.207031 88.816406 272.800781 89.589844 272.800781 L 108.273438 272.800781 C 109.023438 272.800781 109.660156 272.242188 109.75 271.5 L 114.304688 235.125 C 114.414062 234.238281 113.722656 233.457031 112.828125 233.457031 Z M 83.585938 235.1875 C 83.441406 233.457031 84.8125 231.972656 86.554688 231.972656 L 112.828125 231.972656 C 114.617188 231.972656 116.003906 233.539062 115.78125 235.308594 L 111.230469 271.683594 C 111.042969 273.167969 109.777344 274.285156 108.273438 274.285156 L 89.589844 274.285156 C 88.039062 274.285156 86.75 273.101562 86.621094 271.5625 Z M 83.585938 235.1875 " fill-opacity="1" fill-rule="evenodd"/><path fill="#efcb96" d="M 78.269531 252.15625 C 77.882812 255.265625 75.507812 259.285156 74.367188 260.90625 L 80.222656 270.140625 C 84.613281 265.28125 88.03125 265.765625 95.835938 259.445312 C 103.644531 253.128906 94.375 243.40625 92.421875 245.839844 C 90.859375 247.78125 87.378906 249.566406 85.589844 250.210938 L 85.101562 244.378906 C 82.175781 245.351562 78.757812 248.269531 78.269531 252.15625 Z M 78.269531 252.15625 " fill-opacity="1" fill-rule="nonzero"/><path fill="#efcb96" d="M 120.722656 252.15625 C 121.113281 255.265625 123.488281 259.285156 124.628906 260.90625 L 118.773438 270.140625 C 114.378906 265.28125 110.964844 265.765625 103.15625 259.445312 C 95.347656 253.128906 104.621094 243.40625 106.574219 245.839844 C 108.132812 247.78125 111.613281 249.566406 113.402344 250.210938 L 113.890625 244.378906 C 116.820312 245.351562 120.234375 248.269531 120.722656 252.15625 Z M 120.722656 252.15625 " fill-opacity="1" fill-rule="nonzero"/></svg>